<svg width="158" height="200" viewBox="0 0 158 200" fill="none" xmlns="http://www.w3.org/2000/svg">
<g filter="url(#filter0_i_3_599)">
<rect y="0.903076" width="158" height="158" rx="50" fill="white" fill-opacity="0.05"/>
</g>
<rect x="1" y="1.90308" width="156" height="156" rx="49" stroke="url(#paint0_linear_3_599)" stroke-opacity="0.2" stroke-width="2"/>
<g filter="url(#filter1_f_3_599)">
<path fill-rule="evenodd" clip-rule="evenodd" d="M111.98 159.204H49C49.637 142.362 63.4919 128.903 80.4902 128.903C97.4886 128.903 111.344 142.362 111.98 159.204Z" fill="#7F76FF" fill-opacity="0.31"/>
</g>
<g filter="url(#filter2_d_3_599)">
<path fill-rule="evenodd" clip-rule="evenodd" d="M51.793 45.0998C54.2018 39.9031 62.4679 39.9031 79 39.9031C95.5321 39.9031 103.798 39.9031 106.207 45.0998C106.414 45.5465 106.589 46.0105 106.729 46.4875C108.366 52.0363 102.521 58.4675 90.8308 71.33L83 79.9031L90.8308 88.4761C102.521 101.339 108.366 107.77 106.729 113.319C106.589 113.796 106.414 114.26 106.207 114.706C103.798 119.903 95.5321 119.903 79 119.903C62.4679 119.903 54.2018 119.903 51.793 114.706C51.5859 114.26 51.4113 113.796 51.2706 113.319C49.6343 107.77 55.4792 101.339 67.1692 88.4761L75 79.9031L67.1692 71.33C55.4792 58.4675 49.6343 52.0363 51.2706 46.4875C51.4113 46.0105 51.5859 45.5465 51.793 45.0998ZM68 53.9031C68 52.2462 69.3431 50.9031 71 50.9031H87C88.6569 50.9031 90 52.2462 90 53.9031C90 55.5599 88.6569 56.9031 87 56.9031H71C69.3431 56.9031 68 55.5599 68 53.9031Z" fill="url(#paint1_linear_3_599)"/>
<path d="M71 102.903C69.3431 102.903 68 104.246 68 105.903C68 107.56 69.3431 108.903 71 108.903H87C88.6569 108.903 90 107.56 90 105.903C90 104.246 88.6569 102.903 87 102.903H71Z" fill="white"/>
<path d="M71 50.9031C69.3431 50.9031 68 52.2462 68 53.9031C68 55.5599 69.3431 56.9031 71 56.9031H87C88.6569 56.9031 90 55.5599 90 53.9031C90 52.2462 88.6569 50.9031 87 50.9031H71Z" fill="white"/>
</g>
<defs>
<filter id="filter0_i_3_599" x="0" y="0.903076" width="158" height="163" filterUnits="userSpaceOnUse" color-interpolation-filters="sRGB">
<feFlood flood-opacity="0" result="BackgroundImageFix"/>
<feBlend mode="normal" in="SourceGraphic" in2="BackgroundImageFix" result="shape"/>
<feColorMatrix in="SourceAlpha" type="matrix" values="0 0 0 0 0 0 0 0 0 0 0 0 0 0 0 0 0 0 127 0" result="hardAlpha"/>
<feOffset dy="5"/>
<feGaussianBlur stdDeviation="7.5"/>
<feComposite in2="hardAlpha" operator="arithmetic" k2="-1" k3="1"/>
<feColorMatrix type="matrix" values="0 0 0 0 1 0 0 0 0 1 0 0 0 0 1 0 0 0 0.15 0"/>
<feBlend mode="normal" in2="shape" result="effect1_innerShadow_3_599"/>
</filter>
<filter id="filter1_f_3_599" x="9" y="88.9031" width="142.98" height="110.301" filterUnits="userSpaceOnUse" color-interpolation-filters="sRGB">
<feFlood flood-opacity="0" result="BackgroundImageFix"/>
<feBlend mode="normal" in="SourceGraphic" in2="BackgroundImageFix" result="shape"/>
<feGaussianBlur stdDeviation="20" result="effect1_foregroundBlur_3_599"/>
</filter>
<filter id="filter2_d_3_599" x="47" y="39.9031" width="64" height="88" filterUnits="userSpaceOnUse" color-interpolation-filters="sRGB">
<feFlood flood-opacity="0" result="BackgroundImageFix"/>
<feColorMatrix in="SourceAlpha" type="matrix" values="0 0 0 0 0 0 0 0 0 0 0 0 0 0 0 0 0 0 127 0" result="hardAlpha"/>
<feOffset dy="4"/>
<feGaussianBlur stdDeviation="2"/>
<feComposite in2="hardAlpha" operator="out"/>
<feColorMatrix type="matrix" values="0 0 0 0 0 0 0 0 0 0 0 0 0 0 0 0 0 0 0.25 0"/>
<feBlend mode="normal" in2="BackgroundImageFix" result="effect1_dropShadow_3_599"/>
<feBlend mode="normal" in="SourceGraphic" in2="effect1_dropShadow_3_599" result="shape"/>
</filter>
<linearGradient id="paint0_linear_3_599" x1="79" y1="0.903076" x2="79" y2="158.903" gradientUnits="userSpaceOnUse">
<stop stop-color="white"/>
<stop offset="1" stop-color="white" stop-opacity="0.3"/>
</linearGradient>
<linearGradient id="paint1_linear_3_599" x1="55" y1="45.4031" x2="103.5" y2="114.403" gradientUnits="userSpaceOnUse">
<stop stop-color="#FF6C18"/>
<stop offset="0.703041" stop-color="#FFCA43"/>
<stop offset="1" stop-color="white"/>
</linearGradient>
</defs>
</svg>
